Coordinates
version=1
nRows=14
nColumns=36
inDegrees=yes

Units are S.I. units (second, meters, Newtons, ...)
If the header above contains a line with 'inDegrees', this indicates whether rotational values are in degrees (yes) or radians (no).

endheader
time	pelvis_tilt	pelvis_list	pelvis_rotation	pelvis_tx	pelvis_ty	pelvis_tz	hip_flexion_r	hip_adduction_r	hip_rotation_r	knee_angle_r	knee_angle_r_beta	ankle_angle_r	subtalar_angle_r	mtp_angle_r	hip_flexion_l	hip_adduction_l	hip_rotation_l	knee_angle_l	knee_angle_l_beta	ankle_angle_l	subtalar_angle_l	mtp_angle_l	lumbar_extension	lumbar_bending	lumbar_rotation	arm_flex_r	arm_add_r	arm_rot_r	elbow_flex_r	pro_sup_r	arm_flex_l	arm_add_l	arm_rot_l	elbow_flex_l	pro_sup_l
      1.06666670	     -4.47058364	      2.15861165	     -6.91867818	      0.69364391	      1.29743573	      0.09049336	      5.53019834	     -3.51796140	      2.54051102	      5.65624198	      0.09872005	     12.42328718	     -3.19088688	     -7.49999987	      3.17250030	     -2.45673240	     -7.00012188	      5.23223071	      0.09131965	      9.60155708	      1.68484532	     -7.49999987	      0.74374663	     -2.55492860	     -0.92963385	      2.13039277	    -10.52432903	     10.92098372	     14.83193459	     96.81640324	     -0.09143942	    -11.24955910	      2.77236105	     10.66529668	     96.18221527
      1.08333330	     -4.47704562	      2.17166521	     -6.91449834	      0.69404500	      1.29749135	      0.09036279	      5.67397431	     -3.54626703	      2.45733840	      5.90409269	      0.10304586	     12.56830821	     -3.07900196	     -7.49999987	      3.23314659	     -2.45656020	     -7.10213340	      5.32119552	      0.09287238	      9.65292714	      1.72430207	     -7.49999987	      0.64038406	     -2.54642978	     -0.91609128	      2.10237704	    -10.51296891	     11.09331892	     14.93235609	     95.41262498	     -0.09465156	    -11.22545840	      2.79819063	     10.85303431	     94.75394941
      1.10000000	     -4.41040217	      2.18364811	     -6.88434071	      0.69384038	      1.29775153	      0.09059399	      5.69349463	     -3.57493198	      2.38705523	      6.11110549	      0.10665891	     12.56322852	     -3.21129406	     -7.49999987	      3.22804469	     -2.44418792	     -7.12594712	      5.42030584	      0.09460218	      9.61996068	      1.67820115	     -7.49999987	      0.44976801	     -2.53997806	     -0.98445919	      2.10091882	    -10.51788119	     11.22975196	     15.19115786	     94.49923924	     -0.19917228	    -11.29564740	      2.79454743	     11.24605083	     93.79203921
      1.11666670	     -4.58537235	      2.21961594	     -6.87004861	      0.69432621	      1.29752271	      0.09041281	      6.02650471	     -3.62504711	      2.18550719	      6.43291114	      0.11227548	     12.68133312	     -3.13810660	     -7.49999987	      3.52164856	     -2.43443446	     -7.14405999	      5.61504744	      0.09800107	      9.67428033	      1.55928463	     -7.49999987	      0.65526956	     -2.50783819	     -1.19640471	      2.33067407	    -10.46400180	     11.17878487	     14.69283558	     97.20145918	     -0.35090446	    -11.30728431	      1.75358178	     11.28996988	     96.70836919
      1.13333330	     -4.62248543	      2.22936611	     -6.86592291	      0.69410283	      1.29768449	      0.09063269	      6.15553614	     -3.65366148	      2.08995350	      6.65708704	      0.11618809	     12.72209023	     -3.24530509	     -7.49999987	      3.61695181	     -2.42971281	     -7.14340263	      5.74293070	      0.10023305	      9.59605928	      1.41666911	     -7.49999987	      0.58514786	     -2.47644180	     -1.17388515	      2.09735601	    -10.53727188	     11.31257894	     15.03897226	     95.90304338	     -0.34533972	    -11.29220355	      1.82641496	     11.66836420	     95.37102991
      1.15000000	     -4.76545344	      2.25169831	     -6.88245065	      0.69460835	      1.29754990	      0.09052257	      6.41657254	     -3.67743608	      1.95538965	      6.90002964	      0.12042824	     12.85511125	     -3.22756352	     -7.49999987	      3.85875935	     -2.44335447	     -7.28267805	      5.94940223	      0.10383666	      9.70911680	      1.45003376	     -7.49999987	      0.73469200	     -2.43268742	     -1.27786777	      2.30324126	    -10.58093578	     12.56696322	     14.53559929	     95.66172125	     -0.36535377	    -11.35046544	      2.97684066	     11.64952978	     95.01570031
      1.16666670	     -4.84318488	      2.26987293	     -6.88928663	      0.69431454	      1.29755710	      0.09086666	      6.52749480	     -3.71424857	      1.89431435	      7.02538324	      0.12261607	     12.84423333	     -3.40504177	     -7.49999987	      3.97124588	     -2.43297185	     -7.30791261	      6.05175665	      0.10562308	      9.68739950	      1.26450972	     -7.49999987	      0.69941123	     -2.40343250	     -1.33507614	      2.38094066	    -10.77563226	     14.85421961	     14.63532987	     93.78313051	     -0.46693889	    -11.50506177	      4.87374003	     12.01451432	     92.87240610
      1.18333330	     -4.96947987	      2.29118651	     -6.85670728	      0.69491876	      1.29745365	      0.09072967	      6.67945601	     -3.76008469	      1.68131063	      7.17770994	      0.12527467	     12.92383638	     -3.44181837	     -7.49999987	      4.14970613	     -2.41993921	     -7.32333938	      6.17577016	      0.10778752	      9.73500787	      1.19470370	     -7.49999987	      0.78178085	     -2.36185030	     -1.22417454	      2.11001370	    -10.64258933	     12.29625138	     14.75773300	     97.32655168	     -0.40435231	    -11.37293773	      2.63575822	     12.16553763	     96.99454349
      1.20000000	     -5.09842426	      2.28494065	     -6.75350491	      0.69469015	      1.29743231	      0.09099444	      6.78709177	     -3.77005602	      1.51691883	      7.28644002	      0.12717237	     12.99410602	     -3.53572893	     -7.49999987	      4.26586914	     -2.42995376	     -7.42567652	      6.18433325	      0.10793698	      9.85478483	      1.29618340	     -7.49999987	      0.85510964	     -2.30261608	     -1.19795347	      2.03951511	    -10.67767046	     13.05119933	     14.55314502	     95.20070459	     -0.34448649	    -11.34557703	      3.42420628	     12.27074428	     94.83721165
      1.21666670	     -5.10835063	      2.27923814	     -6.62856047	      0.69536347	      1.29745121	      0.09067328	      6.72059112	     -3.80010473	      1.32537095	      7.31091496	      0.12759954	     13.05011282	     -3.57697611	     -7.49999987	      4.22897111	     -2.40321331	     -7.35436032	      6.11136272	      0.10666340	      9.76479932	      1.08924015	     -7.49999987	      0.67320295	     -2.23934442	     -1.23092331	      1.84510612	    -10.76258093	     13.49514384	     14.86492048	     93.17498351	     -0.30455808	    -11.36785826	      3.96869963	     12.71499838	     92.81846748
      1.23333330	     -5.26314381	      2.29028655	     -6.43927318	      0.69516191	      1.29734197	      0.09076941	      6.81375031	     -3.83118246	      1.10321471	      7.30522414	      0.12750021	     12.99243973	     -3.79389044	     -7.49999987	      4.36686954	     -2.36410303	     -7.28263686	      6.05883298	      0.10574658	      9.71405863	      0.87309241	     -7.49999987	      0.77340580	     -2.17586343	     -1.18925546	      1.75531853	    -10.81941686	     13.61129518	     14.81789465	     92.56107196	     -0.24745144	    -11.35037242	      4.17650486	     12.79950315	     92.20156839
      1.25000000	     -5.41567599	      2.32604052	     -6.40044693	      0.69561430	      1.29711803	      0.09070899	      6.98619556	     -3.85476440	      1.08218720	      7.37293211	      0.12868194	     13.14678359	     -3.64229923	     -7.49999987	      4.48763295	     -2.33614130	     -7.62754907	      5.99855460	      0.10469453	      9.92278649	      1.35502007	     -7.49999987	      0.90850262	     -2.10365782	     -1.05250905	      1.78945191	    -11.03127914	     15.24978557	     14.61406241	     93.98726551	     -0.27469366	    -11.63439430	      6.84271356	     13.19133363	     93.72661846
      1.26666670	     -5.48663745	      2.35570716	     -6.30649606	      0.69525894	      1.29705034	      0.09096119	      7.03971750	     -3.89274937	      1.02323945	      7.38072476	      0.12881795	     13.18577661	     -3.70308205	     -7.49999987	      4.51217979	     -2.29112053	     -7.62013534	      5.92655260	      0.10343786	     10.03869500	      1.46830123	     -7.49999987	      0.92795660	     -2.06808164	     -0.93979788	      1.75682535	    -11.00213714	     14.95313656	     14.42815111	     93.83803418	     -0.02846637	    -11.55795942	      6.79627813	     13.29861859	     93.59613490
      1.28333330	     -5.46788297	      2.38528211	     -6.20674934	      0.69561962	      1.29704303	      0.09075425	      6.99416965	     -3.94179797	      0.95960085	      7.41207506	      0.12936511	     13.28291838	     -3.67015755	     -7.49999987	      4.45792433	     -2.23339226	     -7.39608579	      5.87389334	      0.10251878	     10.07991402	      1.28937577	     -7.49999987	      0.82242568	     -2.03252914	     -0.87720110	      1.78037205	    -11.08153543	     14.87264193	     14.60419725	     93.26943064	      0.01008481	    -11.52326789	      6.91006337	     13.70228592	     93.05152824
